<?xml version="1.0" standalone="no"?>
<!DOCTYPE svg PUBLIC "-//W3C//DTD SVG 20010904//EN"
 "http://www.w3.org/TR/2001/REC-SVG-20010904/DTD/svg10.dtd">
<svg version="1.0" xmlns="http://www.w3.org/2000/svg"
 width="512.000000pt" height="512.000000pt" viewBox="0 0 512.000000 512.000000"
 preserveAspectRatio="xMidYMid meet">
<metadata>
Created by potrace 1.14, written by Peter Selinger 2001-2017
</metadata>
<g transform="translate(0.000000,512.000000) scale(0.100000,-0.100000)"
fill="#000000" stroke="none">
<path d="M2445 5100 c-4 -7 -18 -10 -31 -7 -14 2 -27 0 -31 -6 -3 -5 -1 -7 5
-3 6 3 13 2 16 -3 7 -11 -13 -9 -32 3 -7 4 -16 6 -19 3 -3 -3 -17 -1 -32 4
-25 9 -25 9 -6 -7 20 -16 20 -16 -4 -9 -16 5 -21 4 -17 -4 5 -8 0 -8 -18 -1
-21 8 -26 6 -26 -6 0 -8 -5 -12 -10 -9 -6 4 -8 10 -5 15 3 5 0 12 -6 16 -8 4
-9 3 -5 -4 4 -7 1 -13 -8 -13 -9 -1 -20 -3 -26 -4 -5 -1 -15 -3 -21 -4 -5 0
-7 -7 -4 -13 4 -7 0 -5 -8 5 -15 18 -32 24 -22 7 3 -5 0 -10 -9 -10 -8 0 -17
-6 -20 -12 -3 -7 -4 -2 -1 12 3 14 2 20 -1 13 -3 -7 -12 -9 -20 -6 -8 3 -14 0
-14 -7 0 -6 5 -8 12 -4 7 4 8 3 4 -5 -4 -6 -11 -9 -16 -6 -4 3 -10 2 -13 -2
-2 -5 -2 -3 -1 4 2 7 -2 15 -9 19 -7 4 -9 4 -5 -1 9 -10 -16 -34 -33 -32 -8 2
-20 6 -28 11 -10 7 -12 3 -7 -15 3 -13 3 -18 0 -11 -3 6 -11 9 -16 6 -6 -4 -8
-3 -5 3 3 5 0 10 -8 10 -8 0 -11 -5 -8 -10 3 -5 0 -8 -8 -5 -8 3 -20 -1 -27
-8 -7 -7 -20 -10 -29 -7 -11 4 -14 3 -9 -5 4 -7 3 -12 -3 -12 -5 0 -11 5 -13
11 -3 8 -10 6 -21 -5 -12 -13 -17 -14 -17 -4 0 10 -2 10 -9 -1 -5 -8 -14 -10
-22 -6 -9 6 -11 4 -6 -8 4 -12 2 -14 -10 -10 -10 4 -14 2 -10 -4 7 -11 -22
-11 -42 2 -10 5 -12 4 -7 -3 4 -7 1 -13 -6 -14 -7 0 -17 -2 -23 -3 -5 -2 -16
-3 -23 -4 -7 0 -11 -5 -7 -10 3 -5 -9 -11 -27 -13 -23 -2 -33 -8 -32 -19 1 -9
-5 -16 -13 -16 -8 0 -11 7 -7 19 3 10 1 18 -5 18 -6 0 -10 -3 -10 -7 1 -5 1
-15 0 -23 -1 -13 -2 -13 -11 0 -8 12 -10 11 -10 -7 0 -13 -5 -23 -11 -23 -5 0
-8 4 -4 9 3 5 0 13 -6 17 -7 4 -9 3 -6 -3 3 -5 -3 -17 -14 -26 -10 -9 -19 -12
-19 -7 0 6 -5 10 -11 10 -5 0 -7 -4 -4 -10 3 -5 -1 -10 -10 -10 -9 0 -13 -4
-10 -10 4 -6 -1 -7 -11 -3 -13 5 -15 3 -9 -7 5 -9 4 -11 -4 -6 -6 4 -18 2 -26
-4 -12 -10 -19 -10 -32 1 -15 13 -15 12 -4 -10 7 -13 8 -21 3 -17 -6 3 -17 0
-25 -8 -11 -11 -17 -12 -26 -3 -8 8 -11 7 -11 -5 0 -11 -7 -16 -19 -13 -24 4
-46 -19 -35 -37 4 -7 3 -10 -1 -5 -5 4 -20 -3 -33 -15 -14 -13 -22 -18 -19
-12 4 7 1 14 -7 17 -9 4 -12 -2 -10 -19 1 -13 -1 -22 -6 -19 -4 2 -19 -6 -34
-20 -26 -24 -37 -21 -14 4 11 11 9 11 -9 0 -12 -7 -21 -17 -20 -22 1 -5 -4
-12 -11 -14 -8 -3 -10 2 -6 14 5 14 4 15 -4 3 -8 -10 -8 -18 0 -27 9 -11 6
-12 -16 -3 -25 9 -26 8 -15 -11 8 -15 8 -19 0 -15 -6 4 -11 1 -11 -6 0 -10 -2
-10 -8 -1 -5 8 -12 2 -21 -18 -7 -17 -16 -28 -19 -25 -2 3 1 12 8 21 11 13 10
14 -4 9 -9 -3 -16 -12 -16 -20 0 -8 -5 -14 -11 -14 -5 0 -7 5 -3 12 4 7 3 8
-5 4 -9 -6 -9 -11 -1 -21 9 -11 6 -13 -14 -11 -14 2 -23 0 -20 -5 5 -9 -36
-35 -49 -31 -5 1 -6 -2 -2 -8 3 -6 11 -7 17 -4 7 4 8 2 4 -4 -4 -7 -16 -12
-27 -12 -13 0 -18 -4 -13 -12 5 -7 2 -9 -9 -5 -11 4 -15 1 -12 -13 3 -13 -1
-17 -11 -13 -10 4 -17 -2 -21 -16 -3 -11 -10 -21 -15 -21 -5 0 -7 -4 -4 -9 3
-4 -6 -7 -19 -5 -22 2 -24 0 -13 -19 11 -21 10 -21 -7 -7 -11 9 -16 10 -11 3
4 -7 2 -13 -3 -13 -6 0 -11 -6 -11 -13 0 -7 -10 -18 -22 -23 -13 -6 -17 -9
-10 -7 6 1 12 -2 12 -7 0 -10 -14 -14 -40 -10 -13 1 -13 0 0 -12 8 -7 13 -12
11 -11 -2 2 -10 -5 -18 -15 -8 -9 -11 -11 -7 -3 5 10 3 12 -5 7 -7 -5 -10 -15
-7 -23 4 -9 -1 -17 -13 -20 -13 -3 -18 -10 -13 -21 5 -15 4 -15 -11 -3 -15 12
-17 12 -11 -2 6 -18 -39 -81 -50 -70 -3 4 -6 -5 -6 -18 0 -20 -2 -21 -11 -9
-9 12 -10 10 -6 -8 5 -20 3 -21 -11 -10 -13 11 -15 11 -10 -4 4 -10 1 -19 -7
-22 -9 -3 -12 -12 -8 -22 4 -11 2 -15 -4 -11 -6 4 -14 0 -17 -9 -4 -10 -2 -13
7 -8 9 5 8 3 -1 -7 -11 -12 -14 -12 -22 1 -7 12 -9 10 -7 -7 0 -12 5 -19 9
-17 4 3 8 3 8 -1 0 -3 -12 -10 -26 -15 -23 -9 -24 -12 -13 -27 12 -14 12 -16
0 -8 -11 6 -13 4 -7 -10 6 -16 4 -16 -11 -4 -10 7 -15 9 -11 5 4 -5 2 -16 -5
-24 -10 -13 -9 -15 6 -9 11 4 16 3 12 -3 -3 -6 -13 -10 -21 -10 -8 0 -14 -5
-14 -11 0 -5 6 -7 13 -3 8 5 8 2 -2 -9 -15 -19 -26 -23 -15 -5 4 7 3 8 -5 4
-6 -4 -9 -19 -7 -32 4 -22 3 -24 -10 -13 -12 10 -13 9 -8 -6 5 -13 4 -16 -4
-11 -7 4 -12 2 -12 -3 0 -6 5 -11 10 -11 6 0 10 -5 10 -11 0 -5 -4 -8 -8 -5
-4 2 -14 -4 -21 -16 -7 -11 -8 -18 -3 -14 5 3 9 -2 9 -10 0 -8 -6 -13 -13 -10
-7 3 -15 -2 -18 -10 -3 -8 -2 -13 3 -10 5 3 11 -1 14 -9 4 -10 1 -12 -10 -8
-11 4 -14 2 -9 -5 4 -8 0 -12 -10 -12 -16 0 -16 -1 2 -15 19 -14 19 -14 -2
-11 -17 4 -20 0 -19 -24 1 -17 -4 -31 -12 -34 -7 -3 -13 -11 -13 -17 0 -7 5
-8 13 -3 7 5 4 1 -6 -9 -12 -10 -17 -25 -14 -37 3 -11 1 -23 -4 -26 -6 -3 -7
-14 -4 -25 7 -21 -9 -26 -21 -7 -5 7 -3 8 6 3 9 -5 11 -4 6 4 -4 6 -3 18 4 26
8 9 8 15 0 20 -6 4 -9 3 -8 -2 1 -4 -3 -18 -10 -29 -6 -12 -9 -24 -5 -27 3 -4
0 -13 -7 -22 -7 -8 -9 -15 -6 -15 4 0 2 -10 -5 -22 -10 -18 -9 -20 6 -14 14 5
16 4 7 -7 -7 -8 -8 -18 -4 -23 4 -4 -1 -2 -11 5 -19 15 -22 9 -7 -19 7 -13 6
-21 -5 -30 -8 -7 -12 -16 -9 -21 3 -5 0 -9 -6 -9 -7 0 -8 -6 0 -19 7 -14 7
-22 -2 -27 -6 -4 -8 -3 -4 4 3 6 3 13 -2 16 -4 2 -9 -4 -9 -15 -1 -10 2 -19 7
-19 5 0 7 -7 3 -16 -5 -13 -8 -13 -15 -2 -7 9 -8 7 -3 -7 13 -38 13 -66 0 -55
-8 7 -12 5 -12 -8 0 -9 4 -20 10 -23 5 -4 0 -10 -12 -14 -18 -5 -20 -10 -10
-21 6 -7 16 -11 23 -7 6 3 0 -6 -14 -21 -19 -21 -21 -29 -11 -35 10 -7 9 -9
-3 -14 -9 -4 -16 -12 -15 -19 0 -10 2 -10 6 0 2 6 9 12 14 12 6 0 5 -8 -1 -20
-6 -11 -16 -17 -22 -14 -7 4 -8 3 -4 -5 4 -6 11 -9 15 -7 4 3 8 -1 8 -9 0 -8
-5 -12 -10 -8 -5 3 -6 -3 -2 -16 5 -17 3 -20 -12 -15 -16 6 -15 5 2 -9 15 -13
16 -16 5 -17 -11 0 -12 -2 -2 -8 13 -9 12 -46 -3 -59 -4 -5 -5 -2 0 6 5 9 4
12 -2 8 -14 -9 -9 -47 8 -58 11 -7 10 -9 -5 -9 -19 0 -19 0 0 -22 17 -19 17
-21 2 -15 -10 3 -20 1 -24 -5 -4 -7 -3 -8 4 -4 8 5 12 -3 12 -23 0 -17 5 -31
11 -31 5 0 7 -5 4 -11 -5 -6 -12 -4 -22 8 -13 17 -13 16 -4 -4 6 -12 8 -23 3
-26 -4 -2 -2 -2 5 -1 6 2 14 -4 17 -12 3 -9 1 -12 -4 -9 -9 6 -11 0 -13 -42
-1 -10 -5 -21 -10 -24 -5 -3 -1 -9 8 -12 10 -5 14 -3 9 5 -5 7 -3 8 5 3 9 -5
10 -10 2 -18 -6 -6 -11 -18 -11 -26 0 -14 1 -14 10 -1 7 12 9 10 7 -8 -1 -25
-8 -27 -25 -10 -9 9 -9 5 0 -15 7 -14 20 -28 28 -31 11 -3 11 -4 -2 -5 -22 -1
-24 -21 -3 -21 19 0 19 -9 -1 -31 -12 -13 -12 -19 -3 -25 7 -4 10 -3 6 3 -3 5
0 10 8 10 16 0 3 -32 -17 -41 -7 -3 -4 -4 8 -1 21 5 22 0 15 -58 -1 -5 -7 -5
-13 -2 -7 4 -5 0 5 -8 11 -9 16 -24 13 -39 -5 -28 2 -42 24 -51 12 -4 11 -6
-3 -6 -10 -1 -15 -6 -12 -11 4 -6 12 -7 18 -4 7 4 9 4 5 -1 -4 -4 -3 -16 3
-26 7 -15 6 -17 -6 -13 -13 5 -14 2 -7 -17 5 -13 8 -32 6 -42 -1 -12 2 -17 11
-13 21 8 26 -6 10 -30 -13 -20 -13 -22 8 -18 12 2 16 2 10 -2 -9 -4 -10 -11
-3 -24 5 -10 7 -26 3 -36 -5 -12 -3 -15 6 -9 10 5 11 2 7 -13 -4 -12 -2 -23 5
-28 8 -5 10 -3 4 7 -5 8 -4 11 0 6 5 -4 10 -18 12 -30 2 -17 1 -19 -7 -7 -5 8
-10 11 -10 5 0 -5 11 -23 24 -38 15 -17 22 -35 19 -47 -3 -11 -1 -20 4 -20 5
0 9 -9 10 -20 1 -13 -2 -18 -10 -13 -7 4 -6 0 2 -10 7 -9 19 -17 27 -17 7 0
16 -4 19 -10 3 -5 0 -7 -8 -4 -8 3 -18 0 -23 -7 -4 -7 -3 -10 3 -6 6 4 21 -6
34 -21 l24 -27 -24 20 -24 20 16 -26 c10 -14 14 -29 10 -32 -3 -4 1 -7 10 -7
9 0 19 -5 23 -12 4 -7 3 -8 -4 -4 -7 4 -12 2 -12 -3 0 -6 5 -11 11 -11 6 0 9
-7 5 -15 -3 -8 -1 -15 4 -15 6 0 10 5 10 12 0 6 3 8 6 5 4 -4 1 -14 -7 -24
-12 -14 -12 -16 1 -11 12 5 16 -1 14 -23 -2 -26 0 -28 18 -18 16 9 19 8 12 -2
-9 -16 -13 -50 -5 -45 3 2 17 -8 31 -22 14 -13 19 -22 13 -18 -7 4 -13 2 -13
-3 0 -6 5 -11 10 -11 6 0 10 -5 10 -11 0 -5 -6 -7 -12 -3 -9 5 -9 2 1 -9 7 -9
21 -17 30 -17 14 0 14 -2 1 -10 -13 -8 -12 -10 4 -10 12 0 16 -5 13 -15 -4 -8
-1 -17 5 -21 6 -4 8 -3 4 4 -3 6 -3 13 2 16 8 5 10 -1 14 -43 1 -11 6 -17 10
-15 4 3 8 0 8 -7 0 -7 3 -10 6 -6 3 3 16 -6 29 -21 18 -21 21 -30 12 -41 -9
-12 -9 -13 1 -7 7 4 12 2 12 -4 0 -6 5 -8 10 -5 6 4 10 3 9 -2 -3 -19 2 -34
10 -28 5 3 12 1 15 -4 4 -5 1 -13 -5 -17 -8 -5 -9 -3 -4 6 5 8 4 11 -3 6 -6
-4 -8 -14 -5 -22 5 -13 7 -13 14 -2 7 11 11 10 18 -2 5 -8 7 -18 5 -22 -3 -4
0 -8 6 -8 6 0 8 -5 4 -12 -5 -9 -2 -9 9 1 15 12 17 11 17 -13 0 -16 4 -25 10
-21 6 3 10 1 10 -5 0 -6 5 -8 10 -5 6 3 10 2 10 -4 0 -5 -6 -12 -12 -14 -7 -3
-3 -6 10 -6 12 -1 22 -6 22 -12 0 -5 6 -7 13 -3 9 6 9 4 -1 -8 -10 -13 -10
-17 3 -22 11 -4 14 -2 9 6 -5 7 -3 8 5 4 7 -5 10 -14 7 -22 -3 -7 0 -16 6 -20
7 -4 8 -3 4 4 -4 7 -2 12 3 12 6 0 11 -9 11 -20 0 -13 7 -20 19 -20 17 0 38
-32 34 -51 -1 -3 5 -6 13 -7 8 -1 21 -3 29 -4 9 -1 14 -7 10 -15 -4 -11 1 -13
18 -8 17 5 19 4 7 -4 -13 -9 -13 -12 -1 -23 8 -7 11 -8 8 -2 -3 6 0 11 7 11 8
0 12 -8 9 -21 -4 -15 -2 -17 5 -8 7 11 10 10 16 -3 4 -10 12 -15 21 -11 13 5
14 2 4 -17 -12 -21 -11 -21 6 -7 17 14 18 13 12 -2 -4 -12 -2 -15 9 -11 10 3
14 -2 14 -18 0 -22 0 -22 15 -3 13 18 14 18 8 -5 -4 -17 -3 -22 5 -17 7 4 12
3 12 -3 0 -5 9 -8 21 -6 17 4 19 2 9 -10 -10 -12 -9 -15 9 -15 14 0 20 4 15
12 -5 7 -3 8 6 3 10 -6 10 -10 -2 -19 -14 -10 -12 -13 9 -23 20 -10 22 -9 14
1 -8 9 -7 13 4 13 7 0 14 -3 13 -6 -2 -21 3 -41 12 -41 5 0 8 6 6 13 -1 6 -1
9 1 4 3 -4 9 -5 13 -2 5 3 7 -4 5 -16 -3 -16 -1 -18 8 -10 9 7 17 7 27 -1 13
-8 13 -9 -1 -5 -9 3 -16 -1 -16 -9 0 -7 4 -11 8 -9 13 9 39 -7 32 -19 -3 -6
-1 -6 8 2 7 6 18 12 23 12 6 0 4 -5 -4 -10 -12 -8 -12 -10 5 -10 11 0 26 -9
33 -21 8 -12 19 -18 28 -15 8 3 14 -1 14 -9 0 -19 17 -28 26 -14 4 8 3 9 -4 5
-7 -4 -12 -3 -12 2 0 6 7 12 15 16 8 3 14 2 14 -2 -1 -4 -1 -16 1 -27 l1 -20
9 20 c7 16 9 17 9 3 1 -19 40 -50 53 -42 4 3 8 1 8 -3 0 -5 9 -9 20 -10 13 -1
18 3 14 10 -3 7 3 2 14 -11 21 -23 49 -31 36 -10 -4 7 -3 8 4 4 6 -4 8 -14 5
-24 -6 -15 -5 -16 12 -2 17 14 18 13 12 -3 -6 -15 -4 -16 16 -6 21 12 21 11 7
-6 -14 -17 -14 -17 7 -7 29 16 38 15 24 -2 -10 -12 -9 -14 6 -12 10 2 24 -4
31 -13 12 -14 13 -14 8 4 -5 18 -4 17 14 -4 11 -13 20 -18 20 -12 0 7 10 2 22
-9 21 -20 23 -20 35 -4 12 16 13 16 13 -4 0 -12 5 -22 11 -22 5 0 8 4 5 8 -2
4 4 8 14 8 11 0 16 -5 12 -15 -4 -11 -1 -12 14 -3 15 9 21 7 32 -11 8 -12 11
-15 8 -5 -6 22 20 13 28 -9 6 -14 9 -14 26 2 18 16 18 16 13 -7 -5 -23 -5 -23
11 -3 11 14 15 15 14 5 -2 -8 3 -14 10 -12 7 1 22 -3 34 -9 16 -8 19 -8 13 1
-5 8 -3 11 6 8 8 -3 13 -12 11 -19 -1 -8 4 -5 13 5 8 11 15 14 15 7 0 -7 4 -9
10 -6 5 3 7 0 4 -8 -3 -8 1 -14 10 -14 8 0 15 3 14 6 -2 18 3 24 11 12 5 -7
28 -14 55 -15 25 0 46 -4 46 -8 0 -5 5 -8 11 -8 5 0 7 6 3 12 -6 10 -4 10 8 0
8 -7 38 -13 67 -13 28 -1 51 -6 51 -10 0 -5 4 -9 10 -9 5 0 7 8 4 17 -5 15 -4
15 4 4 11 -15 57 -27 48 -13 -2 4 5 9 17 9 17 2 19 0 7 -7 -13 -8 -12 -10 3
-10 9 0 17 5 17 11 0 6 7 4 15 -5 15 -15 50 -12 40 3 -2 4 2 8 10 8 8 0 12 -4
10 -8 -3 -4 2 -10 11 -13 8 -3 12 -2 9 4 -7 11 30 8 41 -3 4 -3 14 -3 23 2 9
5 26 7 38 5 12 -2 25 1 28 7 5 7 14 4 26 -7 17 -15 19 -15 25 -1 3 9 12 13 21
10 11 -4 14 -2 9 5 -5 8 -2 10 8 6 9 -3 13 -11 9 -18 -3 -6 4 -2 17 9 13 11
20 15 17 8 -4 -6 -3 -14 3 -18 5 -3 10 1 10 9 0 19 5 20 32 5 16 -9 19 -8 13
2 -6 9 -3 11 8 6 9 -3 19 -2 23 4 3 6 12 8 19 5 7 -2 18 1 25 7 9 9 11 9 7 1
-4 -7 0 -14 8 -17 9 -4 12 -1 9 7 -3 8 0 17 7 22 8 5 10 3 5 -5 -10 -15 25
-11 36 4 4 6 8 2 8 -8 0 -10 5 -15 10 -12 6 4 7 12 3 18 -4 7 2 5 12 -3 10 -8
16 -10 12 -4 -3 6 5 16 20 23 22 10 24 10 15 -1 -8 -11 -7 -14 7 -14 11 0 17
6 14 13 -3 8 2 11 16 8 11 -2 28 3 36 11 9 10 15 11 15 4 0 -6 6 -10 13 -7 6
2 11 9 10 14 -1 6 10 9 25 7 14 -1 33 3 41 9 12 10 13 9 7 -3 -4 -8 0 -6 8 4
15 18 21 15 17 -8 -1 -5 5 -4 13 4 19 15 21 24 4 14 -7 -4 -8 -3 -4 5 6 9 12
9 24 -1 10 -7 14 -8 10 -4 -10 12 54 45 66 34 5 -4 16 0 23 10 8 9 12 11 8 5
-3 -7 -1 -13 4 -13 6 0 11 5 11 11 0 7 10 9 24 7 18 -4 23 -1 18 10 -3 10 -1
13 6 8 8 -4 12 0 12 10 0 16 1 16 16 -2 8 -10 12 -13 8 -5 -5 11 -2 13 13 9
17 -4 20 -2 16 16 -3 15 -2 17 4 8 6 -7 17 -10 27 -6 14 5 14 9 4 22 -11 14
-10 14 6 5 22 -12 70 3 60 18 -3 5 6 9 20 9 14 0 26 5 26 11 0 5 -5 7 -12 3
-6 -4 -8 -3 -4 4 3 6 16 9 27 7 15 -3 19 0 15 10 -3 8 0 17 6 21 7 4 8 3 4 -4
-4 -7 -2 -12 4 -12 6 0 8 -6 4 -12 -4 -8 -3 -10 2 -5 5 5 9 14 9 19 0 6 6 13
14 16 9 3 11 0 6 -9 -5 -8 -4 -11 1 -6 5 5 10 13 10 18 3 22 5 23 14 9 6 -10
10 -11 10 -2 0 6 6 12 14 12 8 0 18 4 21 10 3 6 -1 7 -12 4 -10 -3 -6 2 10 11
15 9 32 13 37 10 5 -3 12 0 16 6 5 8 3 9 -7 4 -11 -6 -11 -5 -3 5 7 6 23 13
37 13 21 2 23 5 14 16 -10 12 -9 14 6 8 9 -3 17 -2 17 4 0 6 6 7 13 3 6 -4 9
-3 4 1 -9 11 21 45 40 45 8 0 11 -5 7 -12 -4 -7 -3 -8 5 -4 9 6 9 11 1 21 -10
12 -8 13 10 10 16 -3 20 0 16 11 -3 8 -2 13 3 9 5 -3 11 -1 13 4 1 5 10 11 18
13 19 4 39 21 34 30 -2 4 0 9 6 13 5 3 10 1 10 -4 0 -6 4 -11 9 -11 6 0 8 9 6
20 -5 24 30 48 39 27 4 -6 4 -2 2 9 -3 18 0 20 18 16 18 -5 19 -3 8 10 -10 13
-9 15 12 13 20 -3 23 1 18 19 -5 19 -4 20 11 7 15 -12 17 -12 11 3 -4 11 -2
16 7 14 8 -2 13 3 11 11 -2 9 3 11 14 7 14 -5 15 -4 4 9 -14 17 0 21 16 5 7
-7 10 -4 10 12 -1 15 7 24 24 29 21 6 11 14 -13 10 -5 -1 -6 3 -2 8 3 6 13 7
22 4 13 -5 15 -2 10 12 -7 16 -5 16 10 4 14 -12 16 -12 8 0 -6 11 -4 13 10 7
15 -5 16 -4 5 9 -10 12 -9 16 4 21 9 3 13 10 10 15 -3 5 -2 9 3 8 20 -3 33 2
30 14 -1 6 6 11 17 10 13 -1 15 2 7 10 -8 8 -4 15 17 24 15 7 19 11 10 8 -10
-2 -18 0 -18 5 0 9 14 14 32 11 4 0 5 6 2 14 -4 8 1 17 10 21 9 3 13 11 9 17
-4 7 0 8 12 3 15 -5 16 -4 5 9 -11 13 -10 14 4 9 19 -7 22 11 4 20 -7 3 -1 4
15 2 15 -2 30 1 34 7 3 5 2 7 -3 4 -6 -3 -16 -2 -23 3 -10 6 -8 9 8 15 11 3
21 15 21 25 0 10 5 22 10 25 6 4 7 11 4 17 -4 7 -2 8 5 4 9 -6 9 -12 -1 -24
-11 -15 -11 -15 4 -4 9 7 15 24 13 37 -1 13 1 24 4 23 20 -2 31 3 26 12 -3 6
0 10 7 10 11 0 10 2 0 9 -10 6 -8 10 10 14 22 6 22 7 3 22 -19 14 -19 15 -1 8
13 -4 17 -3 12 5 -5 8 -1 10 10 5 13 -5 16 -3 11 9 -3 10 0 19 9 22 8 3 14 11
14 18 0 9 -3 8 -10 -2 -6 -9 -10 -10 -10 -3 0 7 9 17 21 23 17 10 18 14 7 28
-11 13 -11 15 4 10 10 -4 19 -1 22 8 3 9 1 12 -4 9 -6 -3 -10 -2 -10 3 0 5 10
14 23 20 12 6 16 11 10 11 -7 1 -13 6 -13 12 0 5 5 7 10 4 6 -3 10 3 10 15 0
12 5 18 10 15 6 -3 10 -1 10 4 0 6 -5 11 -12 11 -6 0 -3 7 8 16 10 8 14 13 8
10 -6 -3 -11 1 -11 8 0 8 6 12 14 9 12 -5 18 15 14 41 -1 5 6 5 16 2 14 -6 16
-5 6 5 -16 16 -17 33 -1 23 8 -5 9 -2 4 11 -5 15 -4 16 8 6 12 -10 13 -9 9 8
-3 12 -1 21 6 21 6 0 11 5 11 11 0 5 -6 7 -12 3 -9 -6 -9 -3 0 9 8 9 11 21 7
26 -4 7 0 8 11 4 14 -5 15 -3 5 16 -10 17 -9 22 4 27 8 3 12 10 9 15 -3 6 -1
16 6 24 7 9 8 15 0 20 -13 8 -13 25 1 25 5 0 7 -5 3 -12 -4 -6 -3 -8 4 -5 5 4
8 16 5 27 -3 13 0 20 8 20 12 0 12 2 0 9 -11 7 -11 13 2 32 13 18 14 26 4 38
-9 11 -9 13 0 8 6 -4 14 -3 18 3 3 5 1 10 -5 10 -6 0 -8 5 -5 10 4 6 12 7 18
4 8 -5 8 -3 0 7 -18 18 -16 29 5 30 10 0 12 3 5 6 -7 2 -13 11 -13 19 0 10 5
12 13 8 8 -5 8 -2 -2 9 -7 9 -9 17 -4 17 5 0 9 9 10 20 1 13 -2 18 -9 14 -7
-5 -8 -2 -4 5 5 7 15 10 25 7 12 -5 11 -2 -3 9 -18 14 -15 20 8 16 5 -1 4 4
-2 12 -9 10 -9 17 1 27 10 10 9 11 -3 5 -13 -8 -13 -7 -1 8 9 12 10 17 2 17
-7 0 -9 5 -6 10 4 6 12 7 18 4 8 -5 8 -3 0 7 -15 15 -18 33 -5 25 10 -6 9 25
-2 42 -4 8 -1 12 11 13 11 0 13 3 5 6 -10 4 -10 8 0 21 10 12 10 14 1 8 -8 -4
-13 -1 -13 9 0 10 5 13 13 9 9 -6 9 -4 -1 8 -9 12 -10 18 -2 23 8 5 8 10 0 20
-8 10 -7 16 7 24 17 10 17 10 0 11 -12 0 -16 4 -10 13 13 20 14 49 2 41 -8 -5
-8 -1 0 14 8 15 8 23 0 27 -6 5 -4 12 8 21 17 13 17 14 0 8 -15 -5 -16 -3 -8
19 7 18 7 27 -2 31 -9 3 -8 5 1 5 8 1 10 6 5 14 -11 18 -12 36 -2 43 6 3 5 12
-2 21 -7 8 -12 33 -10 55 1 22 -2 37 -7 34 -10 -6 -9 24 2 42 4 7 2 12 -5 12
-10 0 -10 3 -1 12 7 7 12 17 12 22 0 6 -5 4 -10 -4 -7 -11 -10 -5 -10 23 0 28
-3 36 -12 31 -9 -5 -9 -2 1 9 11 14 11 17 0 17 -12 0 -12 2 -1 9 11 7 11 9 -2
14 -18 7 -22 27 -5 27 5 0 7 -5 3 -12 -4 -7 -3 -8 5 -4 9 6 9 11 -1 23 -7 9
-12 24 -10 35 2 10 -2 18 -8 18 -6 0 -9 4 -6 9 4 5 0 12 -6 14 -7 3 -4 6 7 6
17 1 17 3 5 11 -8 5 -11 10 -6 10 6 0 1 7 -10 16 -10 8 -12 12 -4 8 10 -5 8 0
-4 15 -20 22 -20 22 0 15 17 -6 16 -4 -4 15 -18 18 -21 26 -11 37 8 10 8 14 0
14 -6 0 -10 3 -10 8 3 18 -2 33 -9 28 -5 -3 -9 1 -9 9 0 8 3 12 7 10 4 -2 7 2
7 10 0 8 -3 13 -5 10 -12 -12 -36 42 -36 82 0 34 -2 40 -13 31 -7 -6 -16 -8
-20 -4 -3 3 -1 6 5 6 7 0 12 10 12 21 0 19 -2 20 -17 8 -15 -13 -15 -12 -4 9
8 15 8 22 1 22 -6 0 -8 5 -5 10 3 6 0 10 -8 10 -11 0 -13 7 -9 22 4 16 2 19
-9 13 -11 -7 -11 -5 1 10 9 11 10 16 3 11 -12 -7 -19 12 -14 38 1 5 -5 4 -13
-3 -12 -10 -14 -9 -9 8 3 12 10 18 17 14 6 -4 5 1 -3 10 -15 18 -26 23 -16 7
3 -5 1 -10 -4 -10 -6 0 -11 11 -11 25 0 14 -4 25 -10 25 -5 0 -10 11 -10 25 0
28 -9 31 -31 12 -12 -10 -12 -10 -1 3 6 7 12 18 12 23 0 4 -6 5 -12 1 -10 -6
-10 -5 0 8 10 13 9 18 -5 29 -17 13 -17 13 -3 -6 14 -19 14 -19 -3 -6 -14 11
-15 16 -5 29 10 13 10 14 1 8 -8 -4 -13 -2 -13 7 0 8 -7 17 -15 21 -8 3 -15
12 -15 21 0 8 -4 15 -10 15 -5 0 -10 7 -10 16 0 8 -4 13 -9 10 -5 -4 -8 5 -6
19 1 14 -2 28 -8 32 -6 3 -7 1 -3 -5 4 -7 1 -12 -8 -12 -10 0 -13 7 -11 21 3
16 0 19 -12 15 -12 -5 -13 -4 -5 7 9 11 6 18 -12 35 -13 11 -27 17 -31 14 -4
-4 -6 0 -5 8 4 26 0 40 -11 40 -5 0 -7 -4 -4 -10 10 -16 -1 -11 -16 7 -10 11
-10 14 -1 9 6 -4 12 -3 12 2 0 5 -11 14 -25 20 -17 8 -23 17 -20 32 3 15 0 20
-9 17 -19 -8 -28 3 -16 18 8 9 3 17 -17 29 l-28 17 24 -20 c13 -12 18 -21 13
-21 -6 0 -14 5 -17 10 -4 6 -10 8 -14 6 -4 -3 -8 4 -8 15 -1 10 3 19 9 19 6 0
8 3 5 6 -4 4 -13 1 -21 -5 -13 -11 -15 -9 -11 7 4 21 -19 37 -36 26 -5 -3 -9
-2 -8 3 1 4 1 17 0 28 -1 17 -3 18 -11 5 -8 -12 -10 -11 -10 6 0 12 -8 28 -17
35 -11 9 -14 10 -9 2 5 -9 2 -11 -8 -7 -9 3 -13 10 -11 15 3 4 -3 14 -15 21
-11 7 -20 20 -21 28 0 10 -3 8 -9 -5 -8 -18 -9 -17 -9 7 -1 22 -4 25 -23 20
-21 -5 -22 -4 -8 13 9 11 10 16 3 11 -8 -4 -13 -2 -13 6 0 9 -3 9 -10 -2 -8
-12 -10 -11 -10 6 0 12 -7 25 -16 28 -14 5 -15 4 -4 -9 11 -13 10 -14 -4 -9
-12 5 -16 14 -12 28 5 20 5 21 -9 2 -15 -19 -15 -19 -15 1 0 21 -35 53 -73 66
-10 4 -16 11 -13 16 3 5 -3 7 -14 4 -12 -3 -20 0 -20 6 0 7 5 9 12 5 7 -4 8
-3 4 4 -4 6 -13 9 -21 5 -10 -3 -15 1 -15 12 0 15 -3 15 -15 5 -13 -11 -14
-10 -9 5 6 14 4 16 -6 10 -8 -5 -18 -1 -27 11 -8 10 -16 18 -18 17 -13 -8 -25
-2 -19 9 5 8 2 9 -9 5 -10 -3 -17 -2 -17 4 0 6 -4 7 -10 4 -5 -3 -10 -1 -10 6
0 7 -3 9 -6 6 -13 -12 -43 13 -38 31 5 14 3 13 -11 -3 -16 -19 -16 -19 -11 9
3 16 2 26 -1 22 -3 -3 -12 -1 -20 5 -7 6 -13 8 -13 4 0 -4 -6 -2 -14 4 -10 8
-16 9 -21 1 -3 -6 -11 -8 -16 -4 -6 3 -5 12 3 22 11 14 10 15 -6 9 -12 -5 -26
-1 -38 10 -14 13 -18 13 -15 2 2 -8 2 -11 0 -7 -2 4 -12 4 -21 0 -15 -5 -15
-4 1 12 20 20 22 31 5 19 -19 -11 -38 -12 -38 -2 0 6 -4 7 -10 4 -9 -5 -14 7
-11 27 1 8 -20 5 -37 -5 -7 -5 -14 -2 -18 7 -3 9 -10 14 -14 11 -5 -3 -11 -1
-15 5 -4 6 -11 7 -17 4 -7 -5 -8 -2 -4 5 9 14 -25 12 -35 -3 -4 -5 -10 1 -14
13 -5 15 -15 21 -38 21 -32 1 -72 22 -61 32 3 4 -1 6 -8 5 -57 -2 -87 4 -91
21 -4 16 -5 16 -6 0 -1 -20 -16 -24 -27 -6 -4 7 -3 8 4 4 17 -10 15 -1 -2 13
-11 9 -16 9 -22 0 -5 -8 -3 -9 6 -4 8 5 11 4 6 -3 -4 -6 -13 -9 -21 -6 -8 4
-12 10 -9 15 3 5 -13 9 -36 9 -23 0 -39 4 -36 8 6 11 -25 9 -43 -3 -11 -6 -13
-4 -8 9 4 9 3 14 -2 11 -5 -3 -12 -1 -16 5 -4 6 -13 7 -23 1 -9 -4 -24 -6 -32
-3 -11 4 -13 2 -5 -9 6 -8 2 -7 -7 3 -10 11 -19 14 -23 8 -3 -5 -12 -10 -18
-10 -7 0 -6 4 3 10 13 9 13 10 -1 10 -8 0 -20 -5 -26 -11 -8 -8 -13 -7 -18 2
-5 8 -4 10 3 5 8 -5 10 -1 5 10 -4 11 -8 13 -11 6 -2 -7 -9 -9 -14 -6 -6 4 -8
2 -4 -4 3 -6 1 -14 -5 -18 -8 -4 -9 -3 -5 4 4 7 2 12 -4 12 -6 0 -9 4 -6 8 2
4 -6 8 -20 8 -13 0 -24 -4 -24 -9 0 -5 -6 -7 -14 -4 -7 3 -20 0 -27 -6 -8 -7
-10 -8 -6 -3 15 20 -13 33 -53 26 -22 -4 -40 -3 -40 1 0 5 -5 9 -11 9 -5 0 -7
-6 -3 -12 4 -7 -2 -5 -14 5 -20 19 -21 18 -15 -5 5 -20 4 -21 -8 -7 -16 19
-44 30 -53 21 -12 -11 -49 -12 -61 -2 -10 8 -15 8 -20 0z m6 -23 c-10 -9 -11
-8 -5 6 3 10 9 15 12 12 3 -3 0 -11 -7 -18z m86 9 c0 -15 -21 -16 -34 -1 -4 4
-3 5 4 1 6 -3 14 -2 18 4 8 14 12 13 12 -4z m170 -11 c0 -8 -4 -12 -9 -9 -5 3
-6 10 -3 15 9 13 12 11 12 -6z m-342 -5 c3 -5 1 -10 -4 -10 -6 0 -11 5 -11 10
0 6 2 10 4 10 3 0 8 -4 11 -10z m645 -33 c0 -7 -4 -6 -10 3 -8 12 -10 12 -10
1 0 -8 -3 -12 -6 -8 -9 9 6 28 17 22 5 -4 9 -12 9 -18z m51 -14 c13 -16 12
-17 -3 -4 -10 7 -18 15 -18 17 0 8 8 3 21 -13z m69 -7 c0 -3 -4 -8 -10 -11 -5
-3 -10 -1 -10 4 0 6 5 11 10 11 6 0 10 -2 10 -4z m165 -46 c3 -6 -1 -7 -9 -4
-18 7 -21 14 -7 14 6 0 13 -4 16 -10z m469 -210 c-6 -6 -10 -2 -11 12 -2 16 1
18 10 9 7 -7 8 -14 1 -21z m-2504 -36 c0 -8 -5 -12 -10 -9 -6 4 -8 11 -5 16 9
14 15 11 15 -7z m2854 -172 c3 -5 -1 -9 -9 -9 -8 0 -12 4 -9 9 3 4 7 8 9 8 2
0 6 -4 9 -8z m501 -522 c3 -6 -1 -7 -9 -4 -18 7 -21 14 -7 14 6 0 13 -4 16
-10z m-4530 -1919 c3 -5 2 -12 -3 -15 -5 -3 -9 1 -9 9 0 17 3 19 12 6z m740
-1371 c-3 -5 -1 -10 6 -10 7 0 10 -3 6 -6 -9 -9 -28 6 -22 17 4 5 8 9 11 9 3
0 2 -4 -1 -10z m485 -370 c0 -5 -2 -10 -4 -10 -3 0 -8 5 -11 10 -3 6 -1 10 4
10 6 0 11 -4 11 -10z m135 -62 c5 4 5 1 1 -6 -5 -9 -12 -9 -27 -2 -10 6 -19
13 -19 16 0 2 8 0 19 -5 10 -6 22 -7 26 -3z m2225 -7 c0 -5 -7 -12 -16 -15
-14 -5 -15 -4 -4 9 14 17 20 19 20 6z m-1929 -128 c13 -16 12 -17 -3 -4 -17
13 -22 21 -14 21 2 0 10 -8 17 -17z"/>
<path d="M1996 5042 c-3 -5 1 -9 9 -9 8 0 12 4 9 9 -3 4 -7 8 -9 8 -2 0 -6 -4
-9 -8z"/>
<path d="M1876 5008 c3 -5 10 -6 15 -3 13 9 11 12 -6 12 -8 0 -12 -4 -9 -9z"/>
<path d="M3810 4745 c0 -7 30 -13 34 -7 3 4 -4 9 -15 9 -10 1 -19 0 -19 -2z"/>
<path d="M1201 4707 c-13 -21 -12 -21 5 -5 10 10 16 20 13 22 -3 3 -11 -5 -18
-17z"/>
<path d="M1140 4670 c-8 -5 -12 -12 -9 -15 4 -3 12 1 19 10 14 17 11 19 -10 5z"/>
<path d="M590 4180 c0 -5 5 -10 11 -10 5 0 7 5 4 10 -3 6 -8 10 -11 10 -2 0
-4 -4 -4 -10z"/>
<path d="M4510 4156 c0 -2 7 -7 16 -10 8 -3 12 -2 9 4 -6 10 -25 14 -25 6z"/>
<path d="M541 4113 c-7 -8 -11 -16 -8 -19 2 -2 10 2 17 11 17 20 9 27 -9 8z"/>
<path d="M4936 3401 c-3 -5 1 -11 9 -14 9 -4 12 -1 8 9 -6 16 -10 17 -17 5z"/>
<path d="M110 3239 c0 -5 5 -7 10 -4 6 3 10 8 10 11 0 2 -4 4 -10 4 -5 0 -10
-5 -10 -11z"/>
<path d="M173 1685 c0 -8 4 -12 9 -9 5 3 6 10 3 15 -9 13 -12 11 -12 -6z"/>
<path d="M492 1090 c7 -11 17 -20 22 -20 5 0 1 9 -9 20 -10 11 -20 20 -22 20
-2 0 2 -9 9 -20z"/>
<path d="M4025 511 c-3 -5 -2 -12 3 -15 5 -3 9 1 9 9 0 17 -3 19 -12 6z"/>
</g>
</svg>
